<?xml version="1.0" standalone="no"?>
<!DOCTYPE svg PUBLIC "-//W3C//DTD SVG 20010904//EN"
 "http://www.w3.org/TR/2001/REC-SVG-20010904/DTD/svg10.dtd">
<svg version="1.0" xmlns="http://www.w3.org/2000/svg"
 width="225.000000pt" height="225.000000pt" viewBox="0 0 225.000000 225.000000"
 preserveAspectRatio="xMidYMid meet">
<metadata>
Created by potrace 1.10, written by Peter Selinger 2001-2011
</metadata>
<g transform="translate(0.000000,225.000000) scale(0.100000,-0.100000)"
fill="#000000" stroke="none">
<path d="M477 2046 c-98 -36 -166 -112 -187 -211 -7 -35 -10 -254 -8 -676 l3
-624 27 -57 c53 -114 164 -189 285 -192 l63 -1 0 -117 0 -116 138 93 139 94
142 -95 143 -95 -3 116 -2 115 346 3 347 2 27 28 28 27 3 808 c2 560 0 818 -8
844 -20 71 12 68 -757 68 -552 -1 -695 -4 -726 -14z m1427 -45 c15 -17 16 -84
16 -832 0 -715 -2 -815 -15 -829 -13 -13 -67 -16 -353 -18 -390 -4 -372 0
-372 -93 0 -58 -7 -89 -19 -89 -4 0 -51 29 -105 65 -54 36 -104 65 -112 65
-21 0 -67 -25 -151 -81 -40 -27 -77 -49 -83 -49 -6 0 -10 26 -10 64 0 88 -20
112 -98 121 -122 13 -210 71 -253 167 l-24 53 0 640 c0 587 1 644 18 686 22
58 70 104 133 129 47 18 83 19 730 20 651 0 682 -1 698 -19z"/>
<path d="M639 1801 c-22 -18 -24 -26 -24 -115 0 -86 2 -97 23 -117 l23 -21
-23 -25 c-21 -22 -23 -34 -23 -118 0 -83 3 -96 22 -117 l23 -24 -23 -22 c-20
-20 -22 -33 -22 -118 0 -126 8 -134 135 -134 126 0 135 8 135 133 0 86 -2 98
-23 120 l-23 25 23 21 c21 20 23 31 23 116 0 83 -3 96 -22 117 l-23 24 23 22
c20 20 22 33 22 118 0 126 -8 134 -135 134 -72 0 -92 -4 -111 -19z m211 -116
l0 -95 -100 0 -100 0 0 95 0 95 100 0 100 0 0 -95z m0 -280 l0 -95 -100 0
-100 0 0 95 0 95 100 0 100 0 0 -95z m0 -280 l0 -95 -100 0 -100 0 0 95 0 95
100 0 100 0 0 -95z"/>
<path d="M535 773 c-94 -49 -131 -153 -86 -241 36 -70 88 -102 165 -102 61 0
80 24 86 109 l5 66 229 3 c177 2 231 -1 238 -10 4 -7 8 -39 8 -70 0 -45 5 -63
20 -78 19 -19 33 -20 298 -20 348 0 322 -15 322 181 0 129 -1 137 -23 157
l-23 22 -605 0 c-531 -1 -608 -3 -634 -17z m1245 -163 l0 -140 -282 0 -283 0
3 90 4 89 -281 3 -281 3 0 -92 0 -93 -45 0 c-87 0 -145 55 -145 138 0 54 20
94 62 121 33 20 40 21 641 21 l607 0 0 -140z"/>
</g>
</svg>
